<?xml version="1.0" encoding="iso-8859-1"?>
<!-- Generator: Adobe Illustrator 19.0.0, SVG Export Plug-In . SVG Version: 6.00 Build 0)  -->
<svg version="1.1" id="Layer_1" xmlns="http://www.w3.org/2000/svg" xmlns:xlink="http://www.w3.org/1999/xlink" x="0px" y="0px"
	 viewBox="0 0 512.003 512.003" style="enable-background:new 0 0 512.003 512.003;" xml:space="preserve">
<path style="fill:#B88C1D;" d="M309.043,426.99c-4.828,0-9.449-2.753-11.603-7.426l-27.49-59.65
	c-2.951-6.404-0.154-13.988,6.251-16.939c6.402-2.948,13.987-0.154,16.939,6.251l27.491,59.65
	c2.951,6.404,0.153,13.988-6.251,16.939C312.648,426.612,310.831,426.99,309.043,426.99z"/>
<g>
	<path style="fill:#F9BE00;" d="M245.019,225.531c3.837,0.782,14.955,0.926,22.325,0.926c2.173,0,4.332-1.589,5.064-2.405
		c9.563-10.631,19.146-23.232,23.389-30.921c0.603-1.093,2.498-2.713,3.983-2.346c3.2,0.786,8.522,2.113,10.258,2.632
		c2.54,0.762,4.63-1.298,5.222-2.479c12.194-24.396,20.476-75.635,4.255-116.242c-1.195-2.989-3.565-3.502-3.599,0.343
		c-0.188,20.862-5.063,62.6-12.035,80.394c-0.833,2.125-3.239,3.188-5.062,2.465c-2.27-0.899-5.07-2.007-6.204-2.436
		c-2.043-0.775-2.852,0.567-3.329,1.34c-7.702,12.438-37.98,34.871-42.416,39.027L245.019,225.531z"/>
	<path style="fill:#F9BE00;" d="M341.998,333.363l-52.92-68.298c-2.809-3.719-8.318-8.819-12.242-11.334l-15.109-9.687
		c-3.922-2.516-6.814-8.371-6.425-13.016l3.108-37.149c0.005-0.074,0.002-0.146,0.006-0.219c0.852-7.764,5.137-17.761,11.937-27.963
		c0.125-0.184,0.245-0.37,0.368-0.556c0.06-0.086,0.114-0.174,0.175-0.262c0.12-0.177,0.231-0.353,0.329-0.524
		c2.889-4.718,4.556-10.263,4.556-16.2c0-17.159-13.909-31.069-31.069-31.069c-17.159,0-31.068,13.91-31.068,31.069
		c0,8.151,3.142,15.564,8.276,21.106c0.02,0.023,10.889,13.427,4.546,17.324c-3.18,1.227-6.226,3.314-7.965,5.671l-22.425,30.422
		c-2.765,3.75-2.502,9.676,0.584,13.17l20.977,23.737c3.087,3.49,6.974,9.908,8.641,14.261l42.224,94.985
		c1.906,4.251,7.441,6.204,11.09,4.034c3.648-2.168,12.076-11.166,19.5-15.831c8.933-5.614,36.685-11.059,40.391-13.21
		C343.187,341.672,344.809,337.082,341.998,333.363z"/>
</g>
<path style="opacity:0.1;enable-background:new    ;" d="M292.121,342.332c-2.749,0-5.421-1.428-6.892-3.981l-26.536-46.078
	c-2.189-3.803-0.882-8.661,2.919-10.849c3.805-2.189,8.661-0.883,10.849,2.919l26.536,46.078c2.189,3.803,0.882,8.661-2.919,10.849
	C294.829,341.989,293.466,342.332,292.121,342.332z"/>
<path style="fill:#B88C1D;" d="M232.69,210.566c-2.563,0-5.15-0.772-7.393-2.379l-50.535-36.377
	c-2.362-1.696-4.073-4.147-4.847-6.948l-15.251-55.218c-1.869-6.767,2.102-13.766,8.868-15.636
	c6.759-1.865,13.766,2.101,15.635,8.867l14.056,50.889l46.883,33.759c5.706,4.089,7.017,12.03,2.927,17.735
	C240.55,208.722,236.648,210.566,232.69,210.566z"/>
<path style="fill:#F9BE00;" d="M397.017,443.968c0-26.749-41.497-48.435-92.684-48.435s-92.684,21.686-92.684,48.435H397.017z"/>
<rect x="205.117" y="435.346" style="fill:#333E48;" width="198.432" height="58.112"/>
<g>
	<path style="fill:#C38E00;" d="M403.55,442.618c5.85,0,10.594-4.744,10.594-10.595c0-5.85-4.742-10.593-10.594-10.593H205.114
		c-5.85,0-10.594,4.742-10.594,10.593c0,5.85,4.743,10.595,10.594,10.595H403.55z"/>
	<path style="fill:#C38E00;" d="M403.55,504.056c5.85,0,10.594-4.744,10.594-10.595s-4.742-10.593-10.594-10.593H205.114
		c-5.85,0-10.594,4.742-10.594,10.593s4.743,10.595,10.594,10.595H403.55z"/>
</g>
<path style="fill:#1E252B;" d="M411.495,476.738v-27.99c6.252-2.982,10.594-9.348,10.594-16.725
	c0-10.221-8.315-18.537-18.538-18.537h-14.038c-15.372-13.621-40.911-22.782-69.637-25.233l-12.232-26.542
	c5.976-2.348,15.204-4.808,21.834-6.572c8.103-2.157,11.78-3.164,13.991-4.448c3.969-2.302,6.743-6.09,7.612-10.395
	c0.832-4.121-0.142-8.283-2.8-11.802l-52.86-68.221c-3.401-4.502-9.546-10.19-14.293-13.232l-15.108-9.688
	c-0.819-0.525-1.641-1.719-2.183-2.966c1.137,0.007,2.303,0.012,3.509,0.012c4.758,0,8.886-2.715,10.971-5.036
	c9.204-10.231,18.135-21.886,23.05-30.003c3.157,0.79,5.53,1.407,6.392,1.665c6.408,1.916,12.303-1.934,14.609-6.537
	c11.508-23.025,22.914-76.709,4.525-122.743c-2.402-6.01-7.385-7.967-11.277-7.236c-3.489,0.656-7.584,3.787-7.645,10.456
	c-0.164,18.38-4.26,55.384-10.219,73.968c-0.977-0.382-1.813-0.71-2.319-0.901c-3.556-1.35-8.351-1.131-11.83,3.098
	c0.075-0.991,0.123-1.985,0.123-2.983c0-21.513-17.502-39.014-39.014-39.014s-39.013,17.502-39.013,39.014
	c0,1.699,0.117,3.383,0.333,5.047l-5.895-4.246l-12.713-46.026c12.626-11.098,20.026-27.191,20.026-44.16
	c0-15.764-6.251-30.086-16.39-40.651c-0.268-0.321-0.544-0.623-0.824-0.902c-0.256-0.255-0.544-0.518-0.858-0.781
	C178.808,6.268,164.468,0,148.682,0c-32.404,0-58.767,26.363-58.767,58.767c0,15.86,6.327,30.262,16.574,40.845
	c0.208,0.239,0.408,0.481,0.636,0.71c0.263,0.262,0.559,0.531,0.881,0.8c10.548,10.134,24.849,16.389,40.592,16.41l13.659,49.451
	c1.255,4.533,4.05,8.541,7.863,11.277l31.9,22.963l-12.339,16.741c-4.955,6.72-4.505,16.885,1.024,23.146l20.979,23.739
	c2.436,2.755,5.856,8.398,7.173,11.839c0.05,0.13,0.104,0.258,0.159,0.386l42.235,95.007c1.809,4.035,5.274,7.155,9.548,8.664
	l4.254,9.229c-23.034,3.83-43.03,12.112-55.902,23.517h-14.037c-10.222,0-18.538,8.316-18.538,18.537
	c0,7.377,4.342,13.743,10.594,16.725v27.99c-6.252,2.981-10.594,9.347-10.594,16.723c0,10.222,8.316,18.539,18.538,18.539H403.55
	c10.222,0,18.538-8.317,18.538-18.539C422.088,486.086,417.746,479.72,411.495,476.738z M293.645,164.398
	c0.754,0.298,1.524,0.603,2.241,0.887c2.831,1.124,5.982,1.049,8.876-0.208c2.964-1.288,5.338-3.746,6.512-6.743
	c3.767-9.614,6.911-25.492,9.115-41.582c1.549,26.804-4.093,52.805-11.095,68.235c-2.448-0.638-5.559-1.408-7.615-1.913
	c-5.378-1.331-10.631,2.215-12.841,6.221c-3.845,6.971-12.923,18.951-22.134,29.219c-0.817-0.001-1.604-0.005-2.384-0.01
	l2.005-23.964l0.01-0.111c0.004-0.064,0.007-0.125,0.011-0.189c0.188-1.525,0.554-3.189,1.077-4.954
	C280.509,178.494,288.858,170.586,293.645,164.398z M244.71,125.026c12.751,0,23.125,10.373,23.125,23.125
	c0,4.265-1.17,8.433-3.386,12.052c-0.035,0.057-0.084,0.138-0.117,0.195l-0.124,0.19c-0.05,0.07-0.138,0.203-0.185,0.275
	l-0.282,0.426c-6.425,9.644-10.777,19.19-12.535,27.375c-1.481-2.991-3.678-5.592-6.459-7.585l-10.918-7.862
	c-2.166-4.42-5.073-8.134-5.665-8.867c-0.133-0.168-0.273-0.333-0.419-0.49c-3.972-4.288-6.159-9.865-6.159-15.707
	C221.587,135.399,231.96,125.026,244.71,125.026z M190.946,58.767c-1.92,1.628-6.749,3.911-14.356,5.725
	c2.576-3.149,4.928-6.298,7.025-9.398C187.247,56.389,189.705,57.714,190.946,58.767z M178.562,28.922
	c-0.143,1.622-0.942,4.274-2.572,7.718c-3.722-0.715-7.627-1.269-11.636-1.663C170.365,31.244,175.387,29.173,178.562,28.922z
	 M166.819,51.256c-3.214,4.208-7.18,8.799-12.015,13.634c-0.856,0.856-1.708,1.682-2.558,2.493
	c-1.166,0.026-2.348,0.044-3.563,0.044c-6.839,0-12.891-0.442-18.139-1.146c3.213-4.208,7.179-8.799,12.015-13.635
	c0.855-0.855,1.705-1.681,2.556-2.491c1.167-0.026,2.352-0.044,3.568-0.044C155.519,50.111,161.571,50.552,166.819,51.256z
	 M148.682,15.889c4.662,0,9.15,0.758,13.355,2.141c-7.913,4.039-16.105,10.081-23.381,16.498
	c-10.24,0.625-20.086,2.221-28.213,4.878C117.529,25.468,132.003,15.889,148.682,15.889z M106.418,58.767
	c1.919-1.626,6.741-3.907,14.339-5.718c-2.549,3.108-4.912,6.253-7.034,9.384C110.106,61.139,107.657,59.817,106.418,58.767z
	 M118.798,88.611c0.144-1.621,0.943-4.272,2.573-7.716c3.721,0.716,7.625,1.27,11.634,1.665
	C126.994,86.29,121.971,88.359,118.798,88.611z M146.798,101.596c-3.989-0.174-7.836-0.898-11.472-2.094
	c7.912-4.039,16.102-10.079,23.377-16.494c10.238-0.624,20.084-2.22,28.21-4.877c-2.094,4.133-4.861,7.922-8.201,11.21
	c-3.384-2.362-7.469-3.738-11.796-3.738c-1.853,0-3.703,0.251-5.501,0.747C153.875,88.434,148.465,94.465,146.798,101.596z
	 M179.394,165.355c-0.886-0.636-1.533-1.562-1.822-2.608l-15.251-55.217c-0.699-2.534,0.792-5.164,3.324-5.863
	c0.419-0.115,0.847-0.174,1.272-0.174c2.134,0,4.022,1.437,4.591,3.499l14.056,50.889c0.482,1.745,1.547,3.274,3.016,4.331
	l46.897,33.769c1.036,0.741,1.719,1.842,1.926,3.098c0.208,1.256-0.087,2.517-0.829,3.553c-0.907,1.264-2.321,1.989-3.883,1.989
	c-0.693,0-1.736-0.154-2.751-0.882L179.394,165.355z M233.615,270.793c-2.056-5.26-6.338-12.3-10.027-16.473l-20.976-23.735
	c-0.611-0.692-0.69-2.453-0.143-3.196l12.447-16.886l5.751,4.14c3.528,2.531,7.686,3.867,12.023,3.867
	c6.409,0,12.468-3.001,16.36-8.05l-1.664,19.906c-0.629,7.53,3.693,16.285,10.055,20.365l15.11,9.688
	c3.107,1.991,7.964,6.488,10.248,9.512l52.072,67.203c-1.973,0.654-6.075,1.745-9.483,2.652
	c-10.657,2.837-23.921,6.367-30.524,10.516c-4.823,3.031-9.763,7.446-13.732,10.993c-1.724,1.54-4.003,3.577-5.162,4.436
	c-0.097-0.047-0.185-0.102-0.21-0.131L233.615,270.793z M302.082,387.61c-3.509,0.042-6.989,0.184-10.426,0.422l-4.882-10.594
	c1.47-1.193,3.095-2.641,4.947-4.295c0.832-0.744,1.714-1.531,2.622-2.328L302.082,387.61z M304.332,403.477
	c20.193,0,39.588,3.688,54.785,10.009h-109.57C264.743,407.167,284.138,403.477,304.332,403.477z M403.55,496.111H205.114
	c-1.461,0-2.649-1.189-2.649-2.65c0-1.461,1.188-2.648,2.649-2.648H403.55c1.461,0,2.649,1.187,2.649,2.648
	C406.199,494.923,405.011,496.111,403.55,496.111z M213.059,474.924v-24.361h182.547v24.361H213.059z M403.55,434.674H205.114
	c-1.461,0-2.649-1.189-2.649-2.65c0-1.461,1.188-2.648,2.649-2.648H403.55c1.461,0,2.649,1.187,2.649,2.648
	C406.199,433.485,405.011,434.674,403.55,434.674z"/>
<g>
</g>
<g>
</g>
<g>
</g>
<g>
</g>
<g>
</g>
<g>
</g>
<g>
</g>
<g>
</g>
<g>
</g>
<g>
</g>
<g>
</g>
<g>
</g>
<g>
</g>
<g>
</g>
<g>
</g>
</svg>
